<svg xmlns="http://www.w3.org/2000/svg" xmlns:xlink="http://www.w3.org/1999/xlink" id="Layer_1" data-name="Layer 1" viewBox="0 0 436 187"><defs><style>      .cls-1 {        fill: url(#linear-gradient-15);      }      .cls-2 {        fill: url(#linear-gradient-13);      }      .cls-3 {        clip-path: url(#clippath-6);      }      .cls-4 {        clip-path: url(#clippath-7);      }      .cls-5 {        clip-path: url(#clippath-17);      }      .cls-6 {        clip-path: url(#clippath-15);      }      .cls-7 {        clip-path: url(#clippath-18);      }      .cls-8 {        clip-path: url(#clippath-4);      }      .cls-9 {        fill: url(#linear-gradient-2);      }      .cls-10 {        fill: url(#linear-gradient-10);      }      .cls-11 {        fill: url(#linear-gradient-12);      }      .cls-12 {        clip-path: url(#clippath-9);      }      .cls-13 {        clip-path: url(#clippath-10);      }      .cls-14, .cls-15 {        fill: #fff;      }      .cls-16 {        clip-path: url(#clippath-11);      }      .cls-17 {        fill: none;      }      .cls-18 {        fill: url(#linear-gradient-4);      }      .cls-15 {        opacity: 0;      }      .cls-19 {        fill: #4c606a;      }      .cls-20 {        fill: url(#linear-gradient-3);      }      .cls-21 {        clip-path: url(#clippath-1);      }      .cls-22 {        fill: url(#linear-gradient-5);      }      .cls-23 {        fill: url(#linear-gradient-22);      }      .cls-24 {        clip-path: url(#clippath-5);      }      .cls-25 {        clip-path: url(#clippath-20);      }      .cls-26 {        clip-path: url(#clippath-8);      }      .cls-27 {        fill: url(#linear-gradient-8);      }      .cls-28 {        clip-path: url(#clippath-3);      }      .cls-29 {        clip-path: url(#clippath-12);      }      .cls-30 {        fill: url(#linear-gradient-14);      }      .cls-31 {        clip-path: url(#clippath-14);      }      .cls-32 {        fill: url(#linear-gradient-20);      }      .cls-33 {        fill: url(#linear-gradient-17);      }      .cls-34 {        fill: url(#linear-gradient-7);      }      .cls-35 {        clip-path: url(#clippath-19);      }      .cls-36 {        fill: url(#linear-gradient-9);      }      .cls-37 {        fill: url(#linear-gradient-11);      }      .cls-38 {        fill: url(#linear-gradient-19);      }      .cls-39 {        fill: url(#linear-gradient-6);      }      .cls-40 {        fill: url(#linear-gradient-21);      }      .cls-41 {        clip-path: url(#clippath-16);      }      .cls-42 {        clip-path: url(#clippath-2);      }      .cls-43 {        clip-path: url(#clippath-13);      }      .cls-44 {        fill: url(#linear-gradient-16);      }      .cls-45 {        fill: url(#linear-gradient);      }      .cls-46 {        fill: url(#linear-gradient-23);      }      .cls-47 {        clip-path: url(#clippath);      }      .cls-48 {        fill: url(#linear-gradient-18);      }    </style><linearGradient id="linear-gradient" x1="231" y1="-327.41" x2="233.66" y2="-330.46" gradientTransform="translate(0 -221.28) scale(1 -1)" gradientUnits="userSpaceOnUse"><stop offset="0" stop-color="#8f1004"></stop><stop offset="0" stop-color="#8f1004"></stop><stop offset=".99" stop-color="#e3281f"></stop><stop offset="1" stop-color="#e3281f"></stop></linearGradient><linearGradient id="linear-gradient-2" x1="-335.89" y1="-47.41" x2="-334.13" y2="-47.41" gradientTransform="translate(2245.42 399.5) scale(6.01)" gradientUnits="userSpaceOnUse"><stop offset="0" stop-color="#c60f53"></stop><stop offset="1" stop-color="#e4264b"></stop></linearGradient><clipPath id="clippath"><polygon class="cls-17" points="231.79 23.41 217.63 63.67 217.63 68.52 220.42 64.61 233.47 23.04 231.79 23.41"></polygon></clipPath><linearGradient id="linear-gradient-3" x1="-381.05" y1="-231.36" x2="-379.29" y2="-231.36" gradientTransform="translate(-3206.22 -2042.65) rotate(-180) scale(9.03)" gradientUnits="userSpaceOnUse"><stop offset="0" stop-color="#c60f53"></stop><stop offset="1" stop-color="#8f1004"></stop></linearGradient><clipPath id="clippath-1"><polygon class="cls-17" points="234.22 .29 228.44 5.51 220.42 7.75 232.54 26.02 239.06 17.82 234.96 .29 234.22 .29"></polygon></clipPath><linearGradient id="linear-gradient-4" x1="-378.64" y1="-219.43" x2="-376.88" y2="-219.43" gradientTransform="translate(-3771.18 -2310.93) rotate(-180) scale(10.59)" gradientUnits="userSpaceOnUse"><stop offset="0" stop-color="#8f1004"></stop><stop offset=".02" stop-color="#8f1004"></stop><stop offset=".67" stop-color="#c60f53"></stop><stop offset="1" stop-color="#c60f53"></stop></linearGradient><clipPath id="clippath-2"><polygon class="cls-17" points="186.5 72.44 183.89 73.74 212.78 72.62 186.68 72.44 186.5 72.44"></polygon></clipPath><linearGradient id="linear-gradient-5" x1="-372.24" y1="-199.53" x2="-370.49" y2="-199.53" gradientTransform="translate(-5949.98 -3230.28) rotate(-180) scale(16.56)" gradientUnits="userSpaceOnUse"><stop offset="0" stop-color="#8f1004"></stop><stop offset=".02" stop-color="#8f1004"></stop><stop offset="1" stop-color="#b90e0c"></stop></linearGradient><clipPath id="clippath-3"><polygon class="cls-17" points="217.07 72.44 183.89 73.74 217.63 96.11 217.25 72.44 217.07 72.44"></polygon></clipPath><linearGradient id="linear-gradient-6" x1="-371.03" y1="-194.13" x2="-369.28" y2="-194.13" gradientTransform="translate(-6938.99 -3660.24) rotate(-180) scale(19.29)" gradientUnits="userSpaceOnUse"><stop offset="0" stop-color="#8f1004"></stop><stop offset="0" stop-color="#8f1004"></stop><stop offset=".36" stop-color="#c60f53"></stop><stop offset=".99" stop-color="#e3281f"></stop><stop offset="1" stop-color="#e3281f"></stop></linearGradient><clipPath id="clippath-4"><polygon class="cls-17" points="234.78 18.56 220.42 64.61 253.98 76.91 239.06 17.82 234.78 18.56"></polygon></clipPath><linearGradient id="linear-gradient-7" x1="-355.24" y1="-188.36" x2="-353.48" y2="-188.36" gradientTransform="translate(-8796.47 365.54) rotate(150) scale(22.52)" gradientUnits="userSpaceOnUse"><stop offset="0" stop-color="#e1588c"></stop><stop offset=".1" stop-color="#df507f"></stop><stop offset=".27" stop-color="#d93b5b"></stop><stop offset=".52" stop-color="#d11a22"></stop><stop offset=".56" stop-color="#cf1317"></stop><stop offset=".68" stop-color="#cb1316"></stop><stop offset=".78" stop-color="#c01213"></stop><stop offset=".88" stop-color="#ae110d"></stop><stop offset=".98" stop-color="#941006"></stop><stop offset="1" stop-color="#8f1004"></stop></linearGradient><clipPath id="clippath-5"><polygon class="cls-17" points="193.58 44.66 213.34 79.89 217.63 80.26 217.63 63.67 193.58 44.66"></polygon></clipPath><linearGradient id="linear-gradient-8" x1="-374.32" y1="-207.32" x2="-372.57" y2="-207.32" gradientTransform="translate(-4926.16 -2786.47) rotate(-180) scale(13.74)" gradientUnits="userSpaceOnUse"><stop offset="0" stop-color="#e4264b"></stop><stop offset=".2" stop-color="#e4264b"></stop><stop offset="1" stop-color="#8f1004"></stop></linearGradient><clipPath id="clippath-6"><polygon class="cls-17" points="175.5 44.29 197.49 80.64 213.34 79.89 193.58 44.66 175.5 44.29"></polygon></clipPath><linearGradient id="linear-gradient-9" x1="-356.42" y1="-129.67" x2="-354.66" y2="-129.67" gradientTransform="translate(7896.46 2871.49) scale(21.66)" gradientUnits="userSpaceOnUse"><stop offset="0" stop-color="#e3281f"></stop><stop offset=".48" stop-color="#e4264b"></stop><stop offset=".97" stop-color="#e15899"></stop><stop offset="1" stop-color="#e15899"></stop></linearGradient><clipPath id="clippath-7"><polygon class="cls-17" points="171.77 65.35 183.51 57.71 175.5 44.29 171.77 65.35"></polygon></clipPath><linearGradient id="linear-gradient-10" x1="-384.08" y1="-255.89" x2="-382.32" y2="-255.89" gradientTransform="translate(-2411.48 -1674.09) rotate(-180) scale(6.76)" gradientUnits="userSpaceOnUse"><stop offset="0" stop-color="#8f1004"></stop><stop offset=".02" stop-color="#8f1004"></stop><stop offset="1" stop-color="#c60f53"></stop></linearGradient><clipPath id="clippath-8"><polygon class="cls-17" points="217.63 121.83 235.9 126.31 248.57 126.31 233.29 118.29 223.41 116.62 217.63 121.83"></polygon></clipPath><linearGradient id="linear-gradient-11" x1="-397.33" y1="-104.04" x2="-395.57" y2="-104.04" gradientTransform="translate(4016.54 -2088.39) rotate(-45) scale(10.69)" gradientUnits="userSpaceOnUse"><stop offset="0" stop-color="#8f1004"></stop><stop offset="1" stop-color="#c60f53"></stop></linearGradient><clipPath id="clippath-9"><polygon class="cls-17" points="234.96 .29 239.06 17.82 249.88 11.48 251 2.53 241.86 4.21 235.9 .29 234.96 .29"></polygon></clipPath><linearGradient id="linear-gradient-12" x1="-381.45" y1="-227.71" x2="-379.7" y2="-227.71" gradientTransform="translate(-3285.98 -2102.4) rotate(-180) scale(9.27)" gradientUnits="userSpaceOnUse"><stop offset="0" stop-color="#cf1317"></stop><stop offset="1" stop-color="#c60f53"></stop><stop offset="1" stop-color="#c60f53"></stop></linearGradient><clipPath id="clippath-10"><polygon class="cls-17" points="239.06 17.82 245.22 34.41 249.88 11.48 239.06 17.82"></polygon></clipPath><linearGradient id="linear-gradient-13" x1="-390.78" y1="-262.99" x2="-389.02" y2="-262.99" gradientTransform="translate(-2156.32 -1596.43) rotate(-180) scale(6.16)" gradientUnits="userSpaceOnUse"><stop offset="0" stop-color="#b90e0c"></stop><stop offset="1" stop-color="#e4264b"></stop></linearGradient><clipPath id="clippath-11"><polygon class="cls-17" points="247.64 22.66 257.71 22.29 248.76 17.07 247.64 22.66"></polygon></clipPath><linearGradient id="linear-gradient-14" x1="-393.05" y1="-269.3" x2="-391.3" y2="-269.3" gradientTransform="translate(-2019.97 -1540.63) rotate(-180) scale(5.79)" gradientUnits="userSpaceOnUse"><stop offset="0" stop-color="#e15899"></stop><stop offset=".04" stop-color="#e15899"></stop><stop offset=".64" stop-color="#e4264b"></stop><stop offset="1" stop-color="#b90e0c"></stop></linearGradient><clipPath id="clippath-12"><polygon class="cls-17" points="247.64 22.29 246.33 28.81 257.89 22.29 247.64 22.29"></polygon></clipPath><linearGradient id="linear-gradient-15" x1="-389.64" y1="-257.29" x2="-387.89" y2="-257.29" gradientTransform="translate(-2287.71 -1655.33) rotate(-180) scale(6.53)" gradientUnits="userSpaceOnUse"><stop offset="0" stop-color="#e4264b"></stop><stop offset=".57" stop-color="#c60f53"></stop><stop offset="1" stop-color="#8f1004"></stop><stop offset="1" stop-color="#8f1004"></stop></linearGradient><clipPath id="clippath-13"><polygon class="cls-17" points="184.45 80.45 217.63 106.92 217.63 78.96 184.45 80.45"></polygon></clipPath><linearGradient id="linear-gradient-16" x1="-371.19" y1="-194.89" x2="-369.44" y2="-194.89" gradientTransform="translate(-6822.82 -3603.55) rotate(-180) scale(18.97)" xlink:href="#linear-gradient-6"></linearGradient><clipPath id="clippath-14"><polygon class="cls-17" points="239.06 17.82 254.54 79.89 249.88 99.65 264.23 83.62 254.91 50.63 239.06 17.82"></polygon></clipPath><linearGradient id="linear-gradient-17" x1="-375.21" y1="-205.15" x2="-373.46" y2="-205.15" gradientTransform="translate(-5126.21 -2888.58) rotate(-180) scale(14.37)" gradientUnits="userSpaceOnUse"><stop offset="0" stop-color="#e1588d"></stop><stop offset=".15" stop-color="#e05587"></stop><stop offset=".35" stop-color="#de4b77"></stop><stop offset=".58" stop-color="#d93b5c"></stop><stop offset=".83" stop-color="#d42536"></stop><stop offset="1" stop-color="#cf1317"></stop></linearGradient><clipPath id="clippath-15"><polygon class="cls-17" points="208.49 71.13 212.97 78.96 217.81 78.96 217.63 66.1 208.49 71.13"></polygon></clipPath><linearGradient id="linear-gradient-18" x1="-452.18" y1="-138.73" x2="-450.43" y2="-138.73" gradientTransform="translate(1237.6 -3260.21) rotate(-90) scale(7.38)" gradientUnits="userSpaceOnUse"><stop offset="0" stop-color="#8f1004"></stop><stop offset=".02" stop-color="#8f1004"></stop><stop offset=".14" stop-color="#a21514"></stop><stop offset=".36" stop-color="#bf1c2c"></stop><stop offset=".58" stop-color="#d3223d"></stop><stop offset=".79" stop-color="#e02548"></stop><stop offset="1" stop-color="#e4264b"></stop></linearGradient><clipPath id="clippath-16"><polygon class="cls-17" points="217.63 66.1 217.63 106.92 220.98 106.92 229.74 106.92 235.9 106.92 239.06 106.92 249.88 99.65 220.42 64.61 217.63 66.1"></polygon></clipPath><linearGradient id="linear-gradient-19" x1="-388.1" y1="-166.99" x2="-386.35" y2="-166.99" gradientTransform="translate(-1057.9 -10949.9) rotate(-120) scale(26.34)" gradientUnits="userSpaceOnUse"><stop offset="0" stop-color="#e04684"></stop><stop offset=".02" stop-color="#e04684"></stop><stop offset=".15" stop-color="#e04480"></stop><stop offset=".28" stop-color="#e13d74"></stop><stop offset=".41" stop-color="#e23261"></stop><stop offset=".51" stop-color="#e4264b"></stop><stop offset=".81" stop-color="#ce1551"></stop><stop offset="1" stop-color="#c60f53"></stop></linearGradient><clipPath id="clippath-17"><polygon class="cls-17" points="249.88 99.65 262.18 79.89 220.42 64.61 249.88 99.65"></polygon></clipPath><linearGradient id="linear-gradient-20" x1="-356.18" y1="-131.97" x2="-354.43" y2="-131.97" gradientTransform="translate(8686.79 3219.06) scale(23.77)" gradientUnits="userSpaceOnUse"><stop offset="0" stop-color="#8f1004"></stop><stop offset="0" stop-color="#8f1004"></stop><stop offset=".64" stop-color="#c60f53"></stop><stop offset=".99" stop-color="#e3281f"></stop><stop offset="1" stop-color="#e3281f"></stop></linearGradient><clipPath id="clippath-18"><polygon class="cls-17" points="187.06 78.96 184.45 80.45 217.63 78.96 187.06 78.96"></polygon></clipPath><linearGradient id="linear-gradient-21" x1="-371.19" y1="-194.65" x2="-369.43" y2="-194.65" gradientTransform="translate(-6813.6 -3607.49) rotate(-180) scale(18.94)" xlink:href="#linear-gradient-10"></linearGradient><clipPath id="clippath-19"><polygon class="cls-17" points="220.98 106.92 220.98 106.92 224.15 119.22 227.51 121.46 235.9 126.31 234.22 120.9 231.05 111.02 229.74 106.92 220.98 106.92"></polygon></clipPath><linearGradient id="linear-gradient-22" x1="-413.43" y1="-77.69" x2="-411.67" y2="-77.69" gradientTransform="translate(2730.04 -1592.42) rotate(-45) scale(7.21)" gradientUnits="userSpaceOnUse"><stop offset="0" stop-color="#c60f53"></stop><stop offset=".03" stop-color="#c60f53"></stop><stop offset=".6" stop-color="#e4264b"></stop><stop offset="1" stop-color="#e4264b"></stop></linearGradient><clipPath id="clippath-20"><polygon class="cls-17" points="219.3 126.31 219.3 126.31 236.45 126.31 224.15 119.22 219.3 126.31"></polygon></clipPath><linearGradient id="linear-gradient-23" x1="-386.9" y1="-239.12" x2="-385.15" y2="-239.12" gradientTransform="translate(2038.46 -3252.47) rotate(-30) scale(8.44 -8.44)" gradientUnits="userSpaceOnUse"><stop offset="0" stop-color="#e4264b"></stop><stop offset=".51" stop-color="#e32549"></stop><stop offset=".7" stop-color="#e02342"></stop><stop offset=".83" stop-color="#dc1f36"></stop><stop offset=".94" stop-color="#d51826"></stop><stop offset="1" stop-color="#cf1317"></stop></linearGradient></defs><rect class="cls-15" width="436" height="187"></rect><g><polygon class="cls-45" points="235.9 106.92 229.74 106.92 231.05 111.02 235.9 106.92"></polygon><rect class="cls-9" x="231.05" y="106.92" width="7.08" height="15.47"></rect><g class="cls-47"><rect class="cls-20" x="217.63" y="23.04" width="15.85" height="45.48"></rect></g><g class="cls-21"><rect class="cls-18" x="220.42" y=".29" width="18.64" height="25.72"></rect></g><g class="cls-42"><rect class="cls-22" x="183.89" y="72.44" width="29.08" height="1.49"></rect></g><g class="cls-28"><rect class="cls-39" x="183.89" y="72.44" width="33.93" height="23.67"></rect></g><g class="cls-8"><polygon class="cls-34" points="279.52 62.18 228.81 91.45 194.88 32.73 245.59 3.46 279.52 62.18"></polygon></g><g class="cls-24"><rect class="cls-27" x="193.58" y="44.66" width="24.05" height="35.6"></rect></g><g class="cls-3"><rect class="cls-36" x="175.5" y="44.29" width="38.03" height="36.35"></rect></g><g class="cls-4"><rect class="cls-10" x="171.77" y="44.29" width="11.93" height="21.06"></rect></g><g class="cls-26"><polygon class="cls-37" points="212.78 121.46 233.1 101.14 253.42 121.46 233.1 141.78 212.78 121.46"></polygon></g><g class="cls-12"><rect class="cls-11" x="234.96" y=".29" width="16.03" height="17.52"></rect></g><g class="cls-13"><rect class="cls-2" x="239.06" y="11.48" width="10.81" height="22.93"></rect></g><g class="cls-16"><rect class="cls-30" x="247.64" y="17.07" width="10.25" height="5.78"></rect></g><g class="cls-29"><rect class="cls-1" x="246.33" y="22.29" width="11.37" height="6.52"></rect></g><g class="cls-43"><rect class="cls-44" x="184.45" y="78.96" width="33.37" height="27.96"></rect></g><g class="cls-31"><rect class="cls-33" x="239.06" y="17.82" width="25.17" height="81.84"></rect></g><g class="cls-6"><rect class="cls-48" x="208.49" y="66.1" width="9.32" height="13.05"></rect></g><g class="cls-41"><polygon class="cls-38" points="225.64 120.9 199.17 75.23 241.86 50.63 268.33 96.3 225.64 120.9"></polygon></g><g class="cls-5"><rect class="cls-32" x="220.42" y="64.61" width="41.76" height="35.05"></rect></g><g class="cls-7"><rect class="cls-40" x="184.45" y="78.96" width="33.18" height="1.49"></rect></g><path class="cls-14" d="M242.98,19.87c0,.93.75,1.68,1.68,1.68s1.68-.75,1.68-1.68-.75-1.68-1.68-1.68-1.68.75-1.68,1.68"></path><g class="cls-35"><polygon class="cls-23" points="211.29 116.62 228.44 99.47 245.59 116.62 228.44 133.77 211.29 116.62"></polygon></g><g class="cls-25"><polygon class="cls-46" points="223.59 133.77 239.44 124.63 232.17 111.77 216.32 121.09 223.59 133.77"></polygon></g><polygon class="cls-19" points="111.93 126.31 111.93 79.89 118.83 79.89 118.83 120.34 127.59 120.34 127.59 126.31 111.93 126.31"></polygon><path class="cls-19" d="M144.93,126.31h-5.97c-.37-.75-.37-1.68-.37-2.61h-.19c-1.3,2.24-2.24,2.98-4.85,2.98-2.8,0-4.29-1.49-4.29-4.29v-12.49c0-7.64,9.13-3.54,9.13-13.05,0-1.12.19-3.73-1.3-3.73-1.86,0-1.49,2.98-1.49,4.29v4.85h-6.15v-7.46c0-3.91,2.98-6.34,7.83-6.34s7.83,2.42,7.83,6.34v31.5h-.19ZM138.59,106.92c-1.68,1.12-2.98,1.86-2.98,3.73v9.32c.19.75.56,1.3,1.49,1.3.93-.19,1.49-.56,1.49-1.49v-12.86Z"></path><polygon class="cls-19" points="111.93 185.77 111.93 139.17 127.4 139.17 127.4 145.32 118.83 145.32 118.83 157.25 127.22 157.25 127.22 163.4 118.83 163.4 118.83 185.77 111.93 185.77"></polygon><path class="cls-19" d="M129.83,185.77v-46.6h9.13c5.59,0,8.95,1.86,8.95,8.02v6.52c0,3.54-.93,6.34-6.9,6.9v.19c2.98.37,6.34,1.49,6.52,5.59.37,6.15,0,12.68,1.12,19.2h-6.9c-1.12-5.41-.93-12.3-.93-17.71,0-2.8-1.12-3.91-4.29-3.73v21.62h-6.71ZM136.91,158.56h1.3c2.42,0,2.98-1.3,2.98-2.98v-8.39c0-1.68-1.12-2.24-2.61-2.24h-1.68s0,13.61,0,13.61Z"></path><polygon class="cls-19" points="151.82 185.77 151.82 139.17 167.3 139.17 167.3 145.32 158.72 145.32 158.72 157.25 166.92 157.25 166.92 163.4 158.72 163.4 158.72 179.62 167.3 179.62 167.3 185.77 151.82 185.77"></polygon><path class="cls-19" d="M181.28,139.17l2.05,13.42c1.49,8.57,2.61,17.52,3.36,26.28h.19v-2.42c0-4.47-.19-9.13-.19-13.61v-23.67h5.78v46.42h-10.25l-3.54-23.12c-1.12-5.78-1.49-11-2.05-16.4h-.19c0,2.05.19,4.1.19,5.97v33.74h-5.59v-46.6h10.25Z"></path><path class="cls-19" d="M206.44,156.13v-9.51c0-2.42-.75-2.8-2.05-2.8-1.49,0-2.24.56-2.24,2.8v31.5c0,2.42.75,2.8,2.24,2.8,1.3,0,2.05-.56,2.05-2.8v-10.07h6.9v10.63c0,6.15-4.85,7.83-9.13,7.83s-8.95-1.68-8.95-7.83v-32.62c0-6.15,4.85-7.83,8.95-7.83s9.13,1.68,9.13,7.83v10.07h-6.9Z"></path><polygon class="cls-19" points="217.07 185.77 217.07 139.17 224.15 139.17 224.15 157.07 227.88 157.07 227.88 139.17 234.78 139.17 234.78 185.77 227.88 185.77 227.88 163.22 224.15 163.22 224.15 185.77 217.07 185.77"></polygon><polygon class="cls-19" points="263.67 139.17 263.67 145.32 257.52 145.32 257.52 185.77 250.62 185.77 250.62 145.32 244.47 145.32 244.47 139.17 263.67 139.17"></polygon><polygon class="cls-19" points="266.47 185.77 266.47 139.17 281.75 139.17 281.75 145.32 273.36 145.32 273.36 157.25 281.57 157.25 281.57 163.4 273.36 163.4 273.36 179.62 281.94 179.62 281.94 185.77 266.47 185.77"></polygon><path class="cls-19" d="M295.55,156.32v-9.51c0-2.42-.75-2.8-2.05-2.8-1.49,0-2.24.56-2.24,2.8v31.5c0,2.42.75,2.8,2.24,2.8,1.3,0,2.05-.56,2.05-2.8v-10.07h6.9v10.63c0,6.15-4.85,7.83-9.13,7.83s-8.95-1.68-8.95-7.83v-32.62c0-6.15,4.85-7.83,8.95-7.83s9.13,1.68,9.13,7.83v10.07s-6.9,0-6.9,0Z"></path><polygon class="cls-19" points="306.36 185.77 306.36 139.17 313.26 139.17 313.26 157.07 317.17 157.07 317.17 139.17 324.07 139.17 324.07 185.77 317.17 185.77 317.17 163.22 313.26 163.22 313.26 185.77 306.36 185.77"></polygon></g></svg>